<svg width="16" height="16" viewBox="0 0 16 16" fill="none" xmlns="http://www.w3.org/2000/svg">
<path d="M8.3533 2.31322C8.25955 2.21959 8.13247 2.16699 7.99997 2.16699C7.86747 2.16699 7.74038 2.21959 7.64663 2.31322L4.97997 4.97989C4.88633 5.07364 4.83374 5.20072 4.83374 5.33322C4.83374 5.46572 4.88633 5.5928 4.97997 5.68655H11.02C11.1136 5.5928 11.1662 5.46572 11.1662 5.33322C11.1662 5.20072 11.1136 5.07364 11.02 4.97989L8.3533 2.31322ZM11.02 11.0199C11.1136 10.9261 11.1662 10.7991 11.1662 10.6666C11.1662 10.5341 11.1136 10.407 11.02 10.3132H4.97997C4.88633 10.407 4.83374 10.5341 4.83374 10.6666C4.83374 10.7991 4.88633 10.9261 4.97997 11.0199L7.64663 13.6866C7.74038 13.7802 7.86747 13.8328 7.99997 13.8328C8.13247 13.8328 8.25955 13.7802 8.3533 13.6866L11.02 11.0199Z" fill="#0F172A"/>
</svg>
