<svg width="8" height="12" viewBox="0 0 8 12" fill="none" xmlns="http://www.w3.org/2000/svg">
<path d="M4.3533 0.313219C4.25955 0.219585 4.13247 0.166992 3.99997 0.166992C3.86747 0.166992 3.74038 0.219585 3.64663 0.313219L0.979967 2.97989C0.886333 3.07364 0.83374 3.20072 0.83374 3.33322C0.83374 3.46572 0.886333 3.5928 0.979967 3.68655H7.01997C7.1136 3.5928 7.16619 3.46572 7.16619 3.33322C7.16619 3.20072 7.1136 3.07364 7.01997 2.97989L4.3533 0.313219ZM7.01997 9.01989C7.1136 8.92614 7.16619 8.79905 7.16619 8.66655C7.16619 8.53405 7.1136 8.40697 7.01997 8.31322H0.979967C0.886333 8.40697 0.83374 8.53405 0.83374 8.66655C0.83374 8.79905 0.886333 8.92614 0.979967 9.01989L3.64663 11.6866C3.74038 11.7802 3.86747 11.8328 3.99997 11.8328C4.13247 11.8328 4.25955 11.7802 4.3533 11.6866L7.01997 9.01989Z" fill="#0F172A"/>
</svg>
