<svg width="16" height="16" viewBox="0 0 16 16" fill="none" xmlns="http://www.w3.org/2000/svg">
<path fill-rule="evenodd" clip-rule="evenodd" d="M11.3334 10C11.4653 9.99999 11.5941 9.96088 11.7037 9.88762C11.8133 9.81436 11.8988 9.71026 11.9492 9.58846C11.9997 9.46666 12.0129 9.33263 11.9872 9.20333C11.9614 9.07403 11.898 8.95525 11.8048 8.86202L8.47144 5.52869C8.34642 5.40371 8.17688 5.3335 8.0001 5.3335C7.82333 5.3335 7.65379 5.40371 7.52877 5.52869L4.19544 8.86202C4.10223 8.95525 4.03876 9.07403 4.01305 9.20333C3.98733 9.33263 4.00054 9.46666 4.05098 9.58846C4.10143 9.71026 4.18686 9.81436 4.29646 9.88762C4.40607 9.96088 4.53494 9.99999 4.66677 10H11.3334Z" fill="#0F172A"/>
</svg>
