<svg width="24" height="24" viewBox="0 0 24 24" fill="none" xmlns="http://www.w3.org/2000/svg">
<mask id="mask0_83_100" style="mask-type:alpha" maskUnits="userSpaceOnUse" x="0" y="0" width="24" height="24">
<path d="M24 0H0V24H24V0Z" fill="#D9D9D9"/>
</mask>
<g mask="url(#mask0_83_100)">
<path d="M5.6155 21C5.168 21 4.7868 20.8427 4.472 20.528C4.1573 20.2132 4 19.832 4 19.3845V8.6155C4 8.168 4.1573 7.7868 4.472 7.472C4.7868 7.1573 5.168 7 5.6155 7H8C8 5.8858 8.3882 4.9407 9.1645 4.1645C9.9407 3.3882 10.8858 3 12 3C13.1142 3 14.0593 3.3882 14.8355 4.1645C15.6118 4.9407 16 5.8858 16 7H18.3845C18.832 7 19.2132 7.1573 19.528 7.472C19.8427 7.7868 20 8.168 20 8.6155V19.3845C20 19.832 19.8427 20.2132 19.528 20.528C19.2132 20.8427 18.832 21 18.3845 21H5.6155ZM5.6155 20H18.3845C18.5385 20 18.6796 19.9359 18.8077 19.8078C18.9359 19.6796 19 19.5385 19 19.3845V8.6155C19 8.4615 18.9359 8.3204 18.8077 8.1923C18.6796 8.0641 18.5385 8 18.3845 8H5.6155C5.4615 8 5.3204 8.0641 5.1923 8.1923C5.0641 8.3204 5 8.4615 5 8.6155V19.3845C5 19.5385 5.0641 19.6796 5.1923 19.8078C5.3204 19.9359 5.4615 20 5.6155 20ZM12 13C13.1142 13 14.0593 12.6118 14.8355 11.8355C15.6118 11.0593 16 10.1142 16 9H15C15 9.8333 14.7083 10.5417 14.125 11.125C13.5417 11.7083 12.8333 12 12 12C11.1667 12 10.4583 11.7083 9.875 11.125C9.2917 10.5417 9 9.8333 9 9H8C8 10.1142 8.3882 11.0593 9.1645 11.8355C9.9407 12.6118 10.8858 13 12 13ZM9 7H15C15 6.1667 14.7083 5.4583 14.125 4.875C13.5417 4.2917 12.8333 4 12 4C11.1667 4 10.4583 4.2917 9.875 4.875C9.2917 5.4583 9 6.1667 9 7Z" fill="#03708A"/>
</g>
</svg>
