<svg width="24" height="24" viewBox="0 0 24 24" fill="none" xmlns="http://www.w3.org/2000/svg">
<mask id="mask0_83_121" style="mask-type:alpha" maskUnits="userSpaceOnUse" x="0" y="0" width="24" height="24">
<path d="M24 0H0V24H24V0Z" fill="#D9D9D9"/>
</mask>
<g mask="url(#mask0_83_121)">
<path d="M5 15.1155V6C5 5.3475 5.1875 4.8228 5.5625 4.426C5.9375 4.0292 6.4455 3.7253 7.0865 3.5145C7.7275 3.3035 8.4727 3.165 9.322 3.099C10.1715 3.033 11.0642 3 12 3C12.9718 3 13.8812 3.033 14.728 3.099C15.5747 3.165 16.3157 3.3035 16.951 3.5145C17.5862 3.7253 18.0865 4.0292 18.452 4.426C18.8173 4.8228 19 5.3475 19 6V15.1155C19 15.9193 18.7202 16.601 18.1605 17.1605C17.601 17.7202 16.9193 18 16.1155 18L17.6155 19.5V20H16.7693L14.7693 18H9.2308L7.2308 20H6.3845V19.5L7.8845 18C7.0807 18 6.399 17.7202 5.8395 17.1605C5.2798 16.601 5 15.9193 5 15.1155ZM12 4C10.041 4 8.6148 4.1298 7.7213 4.3895C6.8276 4.649 6.2884 5.032 6.1037 5.5385H17.9193C17.7461 5.0243 17.2118 4.6394 16.3163 4.3837C15.4208 4.1279 13.982 4 12 4ZM6 11H11.5V6.5385H6V11ZM12.5 11H18V6.5385H12.5V11ZM8.5 15.6155C8.818 15.6155 9.0834 15.5091 9.2963 15.2963C9.5091 15.0834 9.6155 14.818 9.6155 14.5C9.6155 14.182 9.5091 13.9166 9.2963 13.7037C9.0834 13.4909 8.818 13.3845 8.5 13.3845C8.182 13.3845 7.9166 13.4909 7.7037 13.7037C7.4909 13.9166 7.3845 14.182 7.3845 14.5C7.3845 14.818 7.4909 15.0834 7.7037 15.2963C7.9166 15.5091 8.182 15.6155 8.5 15.6155ZM15.5 15.6155C15.818 15.6155 16.0834 15.5091 16.2962 15.2963C16.5091 15.0834 16.6155 14.818 16.6155 14.5C16.6155 14.182 16.5091 13.9166 16.2962 13.7037C16.0834 13.4909 15.818 13.3845 15.5 13.3845C15.182 13.3845 14.9166 13.4909 14.7038 13.7037C14.4909 13.9166 14.3845 14.182 14.3845 14.5C14.3845 14.818 14.4909 15.0834 14.7038 15.2963C14.9166 15.5091 15.182 15.6155 15.5 15.6155ZM7.8845 17H16.1155C16.6385 17 17.0833 16.8167 17.45 16.45C17.8167 16.0833 18 15.6385 18 15.1155V12H6V15.1155C6 15.6385 6.1833 16.0833 6.55 16.45C6.9167 16.8167 7.3615 17 7.8845 17Z" fill="#03708A"/>
</g>
</svg>
