<svg width="24" height="24" viewBox="0 0 24 24" fill="none" xmlns="http://www.w3.org/2000/svg">
<mask id="mask0_83_94" style="mask-type:alpha" maskUnits="userSpaceOnUse" x="0" y="0" width="24" height="24">
<path d="M24 0H0V24H24V0Z" fill="#D9D9D9"/>
</mask>
<g mask="url(#mask0_83_94)">
<path d="M5 19.5C3.7243 19.5 2.6554 19.0689 1.79325 18.2068C0.93108 17.3446 0.5 16.2757 0.5 15C0.5 13.75 0.93942 12.6811 1.81825 11.7933C2.6971 10.9054 3.7577 10.4615 5 10.4615C6.1423 10.4615 7.1413 10.8481 7.997 11.6213C8.8528 12.3942 9.3462 13.3538 9.477 14.5H11.2423L9.0963 8.5H7.5V7.5H11.5V8.5H10.1692L10.8655 10.4615H16.7808L15.1 5.8462C15.0615 5.7307 14.9974 5.6442 14.9078 5.5865C14.8179 5.5288 14.7153 5.5 14.6 5.5H12.5V4.5H14.6C14.918 4.5 15.2093 4.5878 15.474 4.7635C15.7388 4.9392 15.927 5.1821 16.0385 5.4923L17.8538 10.45H19C20.2423 10.45 21.3029 10.8894 22.1818 11.7683C23.0606 12.6471 23.5 13.7077 23.5 14.95C23.5 16.1962 23.0615 17.2597 22.1845 18.1405C21.3077 19.0212 20.2462 19.4615 19 19.4615C17.8513 19.4615 16.8581 19.0833 16.0203 18.327C15.1824 17.5705 14.6833 16.6282 14.523 15.5H9.477C9.3462 16.65 8.8468 17.6042 7.9787 18.3625C7.1109 19.1208 6.118 19.5 5 19.5ZM5 18.5C5.8372 18.5 6.5753 18.2356 7.2145 17.7068C7.8535 17.1779 8.2666 16.4423 8.4538 15.5H5.5V14.5H8.4538C8.2666 13.5538 7.8535 12.8173 7.2145 12.2905C6.5753 11.7635 5.8372 11.5 5 11.5C4.009 11.5 3.1779 11.8356 2.5067 12.5068C1.83558 13.1779 1.5 14.009 1.5 15C1.5 15.9615 1.83558 16.7852 2.5067 17.4712C3.1779 18.1571 4.009 18.5 5 18.5ZM12.3538 14.5H14.523C14.5807 14.0397 14.7509 13.4987 15.0337 12.877C15.3164 12.2552 15.7283 11.7833 16.2693 11.4615H11.2192L12.3538 14.5ZM19 18.5C19.991 18.5 20.8221 18.1571 21.4932 17.4712C22.1644 16.7852 22.5 15.9615 22.5 15C22.5 14.009 22.1644 13.1779 21.4932 12.5068C20.8221 11.8356 19.991 11.5 19 11.5C18.8513 11.5 18.7128 11.5032 18.5845 11.5095C18.4563 11.516 18.3307 11.5385 18.2078 11.577L19.2463 14.3422L18.3078 14.6962L17.3193 11.9308C16.7423 12.2526 16.2948 12.6949 15.977 13.2578C15.659 13.8206 15.5 14.4013 15.5 15C15.5 15.9615 15.8356 16.7852 16.5068 17.4712C17.1779 18.1571 18.009 18.5 19 18.5Z" fill="#03708A"/>
</g>
</svg>
