<svg width="16" height="16" viewBox="0 0 16 16" fill="none" xmlns="http://www.w3.org/2000/svg">
<path d="M1.61501 16C1.15501 16 0.770997 15.846 0.462997 15.538C0.153997 15.229 0 14.845 0 14.385V1.61501C0 1.15501 0.153997 0.770997 0.462997 0.462997C0.770997 0.153997 1.15501 0 1.61501 0H14.385C14.845 0 15.229 0.153997 15.538 0.462997C15.846 0.770997 16 1.15501 16 1.61501V14.385C16 14.845 15.846 15.229 15.538 15.538C15.229 15.846 14.845 16 14.385 16H1.61501ZM1.61501 15H14.385C14.539 15 14.68 14.936 14.808 14.808C14.936 14.68 15 14.539 15 14.385V1.61501C15 1.46101 14.936 1.32 14.808 1.192C14.68 1.064 14.539 1 14.385 1H1.61501C1.46101 1 1.32 1.064 1.192 1.192C1.064 1.32 1 1.46101 1 1.61501V14.385C1 14.539 1.064 14.68 1.192 14.808C1.32 14.936 1.46101 15 1.61501 15Z" fill="#03708A"/>
<path d="M5.7229 12.437H4.2229V3.43701H5.7229V7.18701H9.4729V8.68701H5.7229V12.437Z" fill="#03708A"/>
<path d="M11.7229 12.437H10.2229V8.68701H6.4729V7.18701H10.2229V3.43701H11.7229V12.437Z" fill="#03708A"/>
</svg>
