<svg width="24" height="24" viewBox="0 0 24 24" fill="none" xmlns="http://www.w3.org/2000/svg">
<mask id="mask0_83_106" style="mask-type:alpha" maskUnits="userSpaceOnUse" x="0" y="0" width="24" height="24">
<path d="M24 0H0V24H24V0Z" fill="#D9D9D9"/>
</mask>
<g mask="url(#mask0_83_106)">
<path d="M6.88405 22.6155V13.1155H4.76904C4.20904 13.1155 3.73604 12.9223 3.34904 12.5358C2.96304 12.1493 2.76904 11.6762 2.76904 11.1165C2.76904 10.5569 2.96304 10.0834 3.34904 9.6963C3.73604 9.3091 4.20904 9.1155 4.76904 9.1155H6.88405V7.8845H4.76904C4.20904 7.8845 3.73604 7.6914 3.34904 7.305C2.96304 6.9185 2.76904 6.4454 2.76904 5.8858C2.76904 5.3261 2.96304 4.8527 3.34904 4.4655C3.73604 4.0782 4.20904 3.8845 4.76904 3.8845H6.88405V1.38452H7.88505V3.8845H10C10.56 3.8845 11.033 4.0778 11.42 4.4643C11.807 4.8508 12 5.3239 12 5.8835C12 6.4432 11.807 6.9166 11.42 7.3038C11.033 7.6909 10.56 7.8845 10 7.8845H7.88505V9.1155H10C10.56 9.1155 11.033 9.3087 11.42 9.695C11.807 10.0815 12 10.5546 12 11.1143C12 11.6739 11.807 12.1474 11.42 12.5345C11.033 12.9219 10.56 13.1155 10 13.1155H7.88505V22.6155H6.88405ZM4.76904 12.1155H10C10.274 12.1155 10.51 12.0174 10.706 11.8213C10.902 11.6251 11 11.3899 11 11.1155C11 10.841 10.902 10.6057 10.706 10.4095C10.51 10.2135 10.274 10.1155 10 10.1155H4.76904C4.49504 10.1155 4.26005 10.2135 4.06305 10.4095C3.86705 10.6057 3.76904 10.841 3.76904 11.1155C3.76904 11.3899 3.86705 11.6251 4.06305 11.8213C4.26005 12.0174 4.49504 12.1155 4.76904 12.1155ZM4.76904 6.8845H10C10.274 6.8845 10.51 6.7865 10.706 6.5905C10.902 6.3944 11 6.159 11 5.8845C11 5.6102 10.902 5.3749 10.706 5.1788C10.51 4.9826 10.274 4.8845 10 4.8845H4.76904C4.49504 4.8845 4.26005 4.9826 4.06305 5.1788C3.86705 5.3749 3.76904 5.6102 3.76904 5.8845C3.76904 6.159 3.86705 6.3944 4.06305 6.5905C4.26005 6.7865 4.49504 6.8845 4.76904 6.8845ZM15.116 22.6155V21.6155H17.115V13.4655C16.27 13.2449 15.559 12.8253 14.982 12.2068C14.404 11.5881 14.116 10.8525 14.116 10V1.38452H21.115V10C21.115 10.8525 20.827 11.5881 20.249 12.2068C19.672 12.8253 18.96 13.2449 18.115 13.4655V21.6155H20.115V22.6155H15.116ZM17.615 12.5C18.319 12.5 18.912 12.2594 19.393 11.778C19.875 11.2965 20.115 10.7039 20.115 10V7.5H15.116V10C15.116 10.7039 15.356 11.2965 15.837 11.778C16.319 12.2594 16.911 12.5 17.615 12.5ZM15.116 6.5H20.115V2.3845H15.116V6.5Z" fill="#03708A"/>
</g>
</svg>
