<svg width="32" height="32" viewBox="0 0 32 32" fill="none" xmlns="http://www.w3.org/2000/svg">
<path d="M28.0001 29.3333V9.98C28.0001 8.516 28.0001 7.78533 27.5787 7.16666C27.1587 6.54933 26.3841 6.144 24.8334 5.332L22.8601 4.3C20.4281 3.02533 19.2107 2.388 18.2734 2.78266C17.3334 3.17733 17.3334 4.32666 17.3334 6.62266V12M29.3334 29.3333H2.66675M28.0001 10.6667H25.3334M28.0001 14.6667H25.3334M28.0001 18.6667H25.3334" stroke="#BBA993" stroke-width="2" stroke-linecap="round" stroke-linejoin="round"/>
<path d="M15.3334 17.3333H16.6667M15.3334 21.3333H16.6667M10.6667 17.3333C10.6667 14.8187 10.6667 13.5627 11.4481 12.7813C12.2294 12 13.4854 12 16.0001 12C18.5147 12 19.7707 12 20.5521 12.7813C21.3334 13.5627 21.3334 14.8187 21.3334 17.3333V29.3333H10.6667V17.3333Z" stroke="#BBA993" stroke-width="2" stroke-linecap="round" stroke-linejoin="round"/>
<path d="M4.66675 21.3333C5.77132 21.3333 6.66675 20.1394 6.66675 18.6667C6.66675 17.1939 5.77132 16 4.66675 16C3.56218 16 2.66675 17.1939 2.66675 18.6667C2.66675 20.1394 3.56218 21.3333 4.66675 21.3333Z" stroke="#BBA993" stroke-width="2" stroke-linecap="round" stroke-linejoin="round"/>
<path d="M4.66675 21.3333V29.3333" stroke="#BBA993" stroke-width="2" stroke-linecap="round" stroke-linejoin="round"/>
</svg>
