<svg width="24" height="24" viewBox="0 0 24 24" fill="none" xmlns="http://www.w3.org/2000/svg">
<path d="M5.64592 11.6461L10.6459 6.6461C10.7398 6.55221 10.8671 6.49947 10.9999 6.49947C11.1327 6.49947 11.26 6.55221 11.3539 6.6461C11.4478 6.73999 11.5005 6.86732 11.5005 7.0001C11.5005 7.13288 11.4478 7.26021 11.3539 7.3541L7.20692 11.5001H17.9999C18.1325 11.5001 18.2597 11.5528 18.3535 11.6465C18.4472 11.7403 18.4999 11.8675 18.4999 12.0001C18.4999 12.1327 18.4472 12.2599 18.3535 12.3537C18.2597 12.4474 18.1325 12.5001 17.9999 12.5001H7.20692L11.3539 16.6461C11.4478 16.74 11.5005 16.8673 11.5005 17.0001C11.5005 17.1329 11.4478 17.2602 11.3539 17.3541C11.26 17.448 11.1327 17.5007 10.9999 17.5007C10.8671 17.5007 10.7398 17.448 10.6459 17.3541L5.64592 12.3541C5.59935 12.3077 5.56241 12.2525 5.5372 12.1917C5.512 12.131 5.49902 12.0659 5.49902 12.0001C5.49902 11.9343 5.512 11.8692 5.5372 11.8085C5.56241 11.7477 5.59935 11.6925 5.64592 11.6461Z" fill="black"/>
</svg>
