<svg width="24" height="24" viewBox="0 0 24 24" fill="none" xmlns="http://www.w3.org/2000/svg">
<mask id="mask0_83_112" style="mask-type:alpha" maskUnits="userSpaceOnUse" x="0" y="0" width="24" height="24">
<path d="M24 0H0V24H24V0Z" fill="#D9D9D9"/>
</mask>
<g mask="url(#mask0_83_112)">
<path d="M6 21.1155V20.1155H11.5V15.3845H9C7.886 15.3845 6.94099 14.9964 6.16499 14.2203C5.38799 13.4439 5 12.4987 5 11.3845C5 10.5 5.28801 9.71702 5.86301 9.03552C6.43901 8.35422 7.14201 7.83472 7.97301 7.47702C8.11001 6.16292 8.544 5.15232 9.274 4.44532C10.004 3.73812 10.913 3.38452 12 3.38452C13.087 3.38452 13.996 3.73812 14.726 4.44532C15.456 5.15232 15.89 6.16292 16.027 7.47702C16.871 7.80902 17.577 8.32212 18.146 9.01632C18.715 9.71062 19 10.5 19 11.3845C19 12.4987 18.612 13.4439 17.835 14.2203C17.059 14.9964 16.114 15.3845 15 15.3845H12.5V20.1155H18V21.1155H6ZM9 14.3845H15C15.833 14.3845 16.542 14.0929 17.125 13.5095C17.708 12.9262 18 12.2179 18 11.3845C18 10.6949 17.775 10.0904 17.324 9.57132C16.873 9.05192 16.315 8.66282 15.65 8.40382L15.1 8.18452L15.027 7.53452C14.914 6.48972 14.588 5.70352 14.049 5.17602C13.51 4.64842 12.827 4.38452 12 4.38452C11.173 4.38452 10.49 4.64842 9.951 5.17602C9.412 5.70352 9.08601 6.48972 8.97301 7.53452L8.89999 8.18452L8.196 8.48082C7.582 8.73982 7.062 9.12242 6.638 9.62882C6.213 10.1353 6 10.7205 6 11.3845C6 12.2179 6.292 12.9262 6.875 13.5095C7.458 14.0929 8.167 14.3845 9 14.3845Z" fill="#03708A"/>
</g>
</svg>
